<svg width="128" height="128" viewBox="0 0 128 128" fill="none" xmlns="http://www.w3.org/2000/svg">
<rect width="128" height="128" rx="64" fill="black"/>
<path d="M39 84C39 78.4772 44.5965 74 51.5 74H64V84C64 89.5228 58.4035 94 51.5 94C44.5965 94 39 89.5228 39 84Z" fill="#24CB71"/>
<path d="M64 34V54H76.5C83.4035 54 89 49.5228 89 44C89 38.4772 83.4035 34 76.5 34H64Z" fill="#FF7237"/>
<path d="M76.3959 74C83.2994 74 88.8959 69.5228 88.8959 64C88.8959 58.4772 83.2994 54 76.3959 54C69.4923 54 63.8959 58.4772 63.8959 64C63.8959 69.5228 69.4923 74 76.3959 74Z" fill="#00B6FF"/>
<path d="M39 44C39 49.5228 44.5965 54 51.5 54H64V34H51.5C44.5965 34 39 38.4772 39 44Z" fill="#FF3737"/>
<path d="M39 64C39 69.5228 44.5965 74 51.5 74H64V54H51.5C44.5965 54 39 58.4772 39 64Z" fill="#874FFF"/>
</svg>
